# xmcd CD database file
#
# Track frame offsets:
#	150
#	21316
#	41829
#	64624
#	86112
#	108325
#	126503
#	150010
#	164381
#	183637
#	207489
#	229642
#	248780
#	269816
#	295634
#
# Disc length: 4147 seconds
#
# Revision: 9
# Processed by: cddbd v1.4PL0 Copyright (c) Steve Scherf et al.
# Submitted via: CDex 1.40Release
#
DISCID=d710310f
DTITLE=Southern All Stars - Umi no Yeah! (Disk II -sunny side-)
DYEAR=1900
DGENRE=Blues
TTITLE0=Manatsu no Kajitsu
TTITLE1=YOU
TTITLE2=SHULABA-LA-BAMBA
TTITLE3=Namida no Kiss
TTITLE4=Sayonara, Baby
TTITLE5=EROTICA SEVEN
TTITLE6=NO NO BIRDY
TTITLE7=Sonna Hiroshi ni Damasarete
TTITLE8=Manpy no G*SPOT
TTITLE9=Anatadakewo -Summer Heartbreak-
TTITLE10=MOON LIGHT LOVER
TTITLE11=Taiyo ha Tsumi na Yatsu
TTITLE12=Koi no Jack Knife
TTITLE13=Ai no Kotodama -Spiritual Message-
TTITLE14=Heiwa no Ryuka
EXTD=ID3G: 0
EXTT0=
EXTT1=
EXTT2=
EXTT3=
EXTT4=
EXTT5=
EXTT6=
EXTT7=
EXTT8=
EXTT9=
EXTT10=
EXTT11=
EXTT12=
EXTT13=
EXTT14=
PLAYORDER=
